<?xml version="1.0" encoding="utf-8" ?>
<svg xmlns="http://www.w3.org/2000/svg" xmlns:xlink="http://www.w3.org/1999/xlink" width="1024" height="1024">
	<path fill="#FAF8F6" d="M0 0L1024 0L1024 1024L0 1024L0 0Z"/>
	<path fill="#232C54" d="M199.969 719.407L200.376 718.578C200.366 717.574 200.023 717.02 199.514 716.18C197.532 712.91 194.922 710.033 192.809 706.839C188.779 700.745 185.04 694.35 181.308 688.068C175.535 678.348 171.056 667.892 166.464 657.58C140.81 599.968 132.981 543.281 140.312 480.74C142.287 463.897 144.903 447.027 149.12 430.581Q150.281 425.961 151.554 421.371Q152.828 416.781 154.214 412.223Q155.6 407.666 157.096 403.143Q158.593 398.621 160.201 394.137Q161.808 389.653 163.524 385.209Q165.241 380.766 167.066 376.365Q168.891 371.965 170.823 367.611Q172.755 363.257 174.793 358.952Q176.831 354.646 178.974 350.392Q181.117 346.138 183.364 341.937Q185.611 337.736 187.959 333.592Q190.308 329.448 192.758 325.363Q195.207 321.277 197.756 317.253Q200.305 313.229 202.952 309.268Q205.599 305.307 208.342 301.413Q211.085 297.518 213.922 293.692Q216.76 289.866 219.69 286.11Q222.62 282.355 225.642 278.672Q228.663 274.989 231.774 271.382Q234.885 267.774 238.083 264.244Q241.281 260.713 244.565 257.263Q247.849 253.812 251.216 250.442Q254.583 247.073 258.032 243.787Q261.481 240.501 265.009 237.3Q268.537 234.1 272.143 230.987Q275.748 227.873 279.429 224.85Q283.11 221.826 286.863 218.893Q290.617 215.96 294.441 213.12Q298.266 210.28 302.158 207.535Q306.051 204.789 310.01 202.14Q313.969 199.49 317.992 196.939Q322.014 194.387 326.098 191.935Q329.175 190.099 332.288 188.325Q335.401 186.551 338.549 184.839Q341.697 183.127 344.878 181.478Q348.059 179.829 351.273 178.243Q354.486 176.658 357.73 175.136Q360.974 173.615 364.248 172.158Q367.522 170.701 370.824 169.31Q374.126 167.919 377.455 166.593Q380.784 165.268 384.138 164.009Q387.493 162.75 390.872 161.557Q394.251 160.365 397.653 159.24Q401.055 158.116 404.479 157.059Q407.903 156.002 411.347 155.013Q414.791 154.024 418.254 153.104Q421.717 152.184 425.197 151.332Q428.678 150.481 432.175 149.699Q435.672 148.917 439.183 148.205Q442.695 147.493 446.22 146.851Q449.745 146.208 453.282 145.636Q456.82 145.064 460.367 144.562Q463.915 144.06 467.473 143.629Q471.03 143.198 474.595 142.837Q478.16 142.477 481.731 142.187Q485.303 141.898 488.879 141.679Q492.456 141.461 496.036 141.313Q499.616 141.166 503.198 141.089Q506.781 141.013 510.364 141.008Q513.947 141.003 517.53 141.069Q521.112 141.135 524.693 141.272Q528.273 141.409 531.85 141.618Q535.427 141.826 539 142.105Q542.572 142.385 546.138 142.735C563.609 144.408 580.894 146.999 597.907 151.389C614.393 155.644 631.322 160.752 647.147 167.029Q650.711 168.464 654.245 169.971Q657.779 171.478 661.282 173.057Q664.784 174.636 668.254 176.286Q671.724 177.935 675.159 179.655Q678.595 181.375 681.995 183.165Q685.395 184.954 688.757 186.813Q692.12 188.671 695.444 190.597Q698.768 192.524 702.053 194.517Q705.337 196.511 708.58 198.571Q711.823 200.631 715.023 202.756Q718.224 204.882 721.381 207.072Q724.537 209.262 727.649 211.516Q730.76 213.77 733.825 216.087Q736.89 218.404 739.907 220.783Q742.924 223.161 745.892 225.601Q748.86 228.041 751.778 230.54Q754.696 233.04 757.562 235.598Q760.428 238.156 763.242 240.772Q766.056 243.388 768.816 246.061Q771.576 248.734 774.281 251.462Q776.986 254.191 779.635 256.974Q782.284 259.757 784.875 262.593Q787.467 265.429 790.001 268.317Q792.534 271.206 795.008 274.145Q797.483 277.084 799.896 280.073Q802.31 283.062 804.663 286.1Q807.016 289.137 809.306 292.222Q811.596 295.307 813.823 298.437Q816.05 301.568 818.213 304.743Q820.376 307.919 822.474 311.137Q824.572 314.356 826.604 317.617Q828.636 320.878 830.601 324.179Q832.28 326.978 833.91 329.805Q835.541 332.632 837.123 335.487Q838.704 338.341 840.238 341.223Q841.771 344.104 843.254 347.011Q844.738 349.917 846.172 352.849Q847.605 355.781 848.989 358.737Q850.373 361.693 851.705 364.672Q853.038 367.651 854.32 370.652Q855.602 373.654 856.832 376.677Q858.063 379.699 859.241 382.743Q860.42 385.786 861.546 388.849Q862.673 391.912 863.747 394.994Q864.821 398.076 865.842 401.176Q866.863 404.275 867.832 407.392Q868.8 410.509 869.715 413.642Q870.63 416.774 871.491 419.922Q872.352 423.07 873.159 426.233Q873.967 429.395 874.72 432.57Q875.473 435.746 876.172 438.934Q876.871 442.122 877.516 445.321Q878.16 448.52 878.75 451.73Q879.34 454.94 879.874 458.16Q880.409 461.379 880.889 464.607Q881.369 467.836 881.793 471.071Q882.218 474.307 882.587 477.55Q882.957 480.793 883.271 484.041Q883.584 487.29 883.843 490.543Q884.101 493.797 884.304 497.054Q884.507 500.311 884.654 503.571Q884.801 506.832 884.893 510.094Q884.984 513.357 885.02 516.62Q885.056 519.883 885.036 523.147C885.091 547.241 883.277 571.963 878.547 595.616C875.376 611.469 870.657 626.715 865.539 642.018C860.327 657.604 853.75 672.268 846.374 686.928C842.153 695.318 833.653 706.836 831.655 715.521C831.597 715.774 831.549 716.028 831.496 716.281C838.241 717.779 841.963 720.742 845.82 726.502C851.602 728.059 857.055 730.84 860.179 736.218C862.889 740.882 862.561 745.455 862.547 750.612C869.758 750.566 894.933 749.1 900.289 751.948L901.038 753.011C900.734 754.255 900.418 754.852 899.319 755.589C898.276 756.288 896.784 756.635 895.543 756.705C892.098 756.9 888.534 756.597 885.07 756.611L861.027 756.774L783.108 757.271C773.287 770.981 753.584 790.258 740.577 801C665.265 863.196 571.818 890.53 474.813 881.18Q470.986 880.793 467.168 880.328Q463.35 879.863 459.543 879.319Q455.735 878.776 451.939 878.154Q448.144 877.532 444.362 876.832Q440.58 876.132 436.813 875.354Q433.046 874.577 429.296 873.722Q425.546 872.867 421.814 871.935Q418.083 871.003 414.371 869.995Q410.659 868.987 406.969 867.902Q403.279 866.817 399.612 865.657Q395.945 864.497 392.303 863.261Q388.66 862.026 385.044 860.716Q381.428 859.405 377.84 858.021Q374.251 856.637 370.692 855.179Q367.133 853.721 363.604 852.19Q360.076 850.659 356.579 849.056Q353.083 847.453 349.621 845.779Q346.158 844.104 342.731 842.358Q339.303 840.613 335.913 838.797Q332.522 836.981 329.169 835.096Q325.817 833.211 322.504 831.258Q319.191 829.304 315.918 827.283Q312.646 825.261 309.416 823.173Q306.186 821.084 303 818.93Q299.814 816.776 296.673 814.556Q293.531 812.337 290.436 810.053Q287.341 807.77 284.294 805.423Q281.247 803.076 278.248 800.667Q275.25 798.258 272.302 795.788Q269.354 793.318 266.457 790.787Q263.56 788.257 260.716 785.668Q257.872 783.078 255.082 780.431C247.497 773.122 239.843 765.848 233.13 757.715Q230.226 757.596 227.326 757.406C219.579 756.825 211.327 757.418 203.533 757.414L152.627 757.297C146.751 757.259 140.541 757.899 134.719 757.393C133 757.244 131.858 756.89 130.491 755.851C130.024 754.624 129.965 754.564 130.32 753.312C134.105 749.751 144.574 751.236 149.533 751.314C149.446 749.234 149.354 747.06 149.592 744.991C150.176 739.917 152.824 734.732 157.054 731.772C161.636 728.566 166.758 728.498 172.059 729.306C172.702 727.364 173.314 725.269 174.314 723.485C176.401 719.759 179.999 716.798 184.172 715.788C189.787 714.429 195.273 716.416 199.969 719.407Z"/>
	<path fill="#FADFD6" d="M199.969 719.407L200.376 718.578C200.366 717.574 200.023 717.02 199.514 716.18C197.532 712.91 194.922 710.033 192.809 706.839C188.779 700.745 185.04 694.35 181.308 688.068C175.535 678.348 171.056 667.892 166.464 657.58C140.81 599.968 132.981 543.281 140.312 480.74C142.287 463.897 144.903 447.027 149.12 430.581Q150.281 425.961 151.554 421.371Q152.828 416.781 154.214 412.223Q155.6 407.666 157.096 403.143Q158.593 398.621 160.201 394.137Q161.808 389.653 163.524 385.209Q165.241 380.766 167.066 376.365Q168.891 371.965 170.823 367.611Q172.755 363.257 174.793 358.952Q176.831 354.646 178.974 350.392Q181.117 346.138 183.364 341.937Q185.611 337.736 187.959 333.592Q190.308 329.448 192.758 325.363Q195.207 321.277 197.756 317.253Q200.305 313.229 202.952 309.268Q205.599 305.307 208.342 301.413Q211.085 297.518 213.922 293.692Q216.76 289.866 219.69 286.11Q222.62 282.355 225.642 278.672Q228.663 274.989 231.774 271.382Q234.885 267.774 238.083 264.244Q241.281 260.713 244.565 257.263Q247.849 253.812 251.216 250.442Q254.583 247.073 258.032 243.787Q261.481 240.501 265.009 237.3Q268.537 234.1 272.143 230.987Q275.748 227.873 279.429 224.85Q283.11 221.826 286.863 218.893Q290.617 215.96 294.441 213.12Q298.266 210.28 302.158 207.535Q306.051 204.789 310.01 202.14Q313.969 199.49 317.992 196.939Q322.014 194.387 326.098 191.935Q329.175 190.099 332.288 188.325Q335.401 186.551 338.549 184.839Q341.697 183.127 344.878 181.478Q348.059 179.829 351.273 178.243Q354.486 176.658 357.73 175.136Q360.974 173.615 364.248 172.158Q367.522 170.701 370.824 169.31Q374.126 167.919 377.455 166.593Q380.784 165.268 384.138 164.009Q387.493 162.75 390.872 161.557Q394.251 160.365 397.653 159.24Q401.055 158.116 404.479 157.059Q407.903 156.002 411.347 155.013Q414.791 154.024 418.254 153.104Q421.717 152.184 425.197 151.332Q428.678 150.481 432.175 149.699Q435.672 148.917 439.183 148.205Q442.695 147.493 446.22 146.851Q449.745 146.208 453.282 145.636Q456.82 145.064 460.367 144.562Q463.915 144.06 467.473 143.629Q471.03 143.198 474.595 142.837Q478.16 142.477 481.731 142.187Q485.303 141.898 488.879 141.679Q492.456 141.461 496.036 141.313Q499.616 141.166 503.198 141.089Q506.781 141.013 510.364 141.008Q513.947 141.003 517.53 141.069Q521.112 141.135 524.693 141.272Q528.273 141.409 531.85 141.618Q535.427 141.826 539 142.105Q542.572 142.385 546.138 142.735C563.609 144.408 580.894 146.999 597.907 151.389C614.393 155.644 631.322 160.752 647.147 167.029Q650.711 168.464 654.245 169.971Q657.779 171.478 661.282 173.057Q664.784 174.636 668.254 176.286Q671.724 177.935 675.159 179.655Q678.595 181.375 681.995 183.165Q685.395 184.954 688.757 186.813Q692.12 188.671 695.444 190.597Q698.768 192.524 702.053 194.517Q705.337 196.511 708.58 198.571Q711.823 200.631 715.023 202.756Q718.224 204.882 721.381 207.072Q724.537 209.262 727.649 211.516Q730.76 213.77 733.825 216.087Q736.89 218.404 739.907 220.783Q742.924 223.161 745.892 225.601Q748.86 228.041 751.778 230.54Q754.696 233.04 757.562 235.598Q760.428 238.156 763.242 240.772Q766.056 243.388 768.816 246.061Q771.576 248.734 774.281 251.462Q776.986 254.191 779.635 256.974Q782.284 259.757 784.875 262.593Q787.467 265.429 790.001 268.317Q792.534 271.206 795.008 274.145Q797.483 277.084 799.896 280.073Q802.31 283.062 804.663 286.1Q807.016 289.137 809.306 292.222Q811.596 295.307 813.823 298.437Q816.05 301.568 818.213 304.743Q820.376 307.919 822.474 311.137Q824.572 314.356 826.604 317.617Q828.636 320.878 830.601 324.179Q832.28 326.978 833.91 329.805Q835.541 332.632 837.123 335.487Q838.704 338.341 840.238 341.223Q841.771 344.104 843.254 347.011Q844.738 349.917 846.172 352.849Q847.605 355.781 848.989 358.737Q850.373 361.693 851.705 364.672Q853.038 367.651 854.32 370.652Q855.602 373.654 856.832 376.677Q858.063 379.699 859.241 382.743Q860.42 385.786 861.546 388.849Q862.673 391.912 863.747 394.994Q864.821 398.076 865.842 401.176Q866.863 404.275 867.832 407.392Q868.8 410.509 869.715 413.642Q870.63 416.774 871.491 419.922Q872.352 423.07 873.159 426.233Q873.967 429.395 874.72 432.57Q875.473 435.746 876.172 438.934Q876.871 442.122 877.516 445.321Q878.16 448.52 878.75 451.73Q879.34 454.94 879.874 458.16Q880.409 461.379 880.889 464.607Q881.369 467.836 881.793 471.071Q882.218 474.307 882.587 477.55Q882.957 480.793 883.271 484.041Q883.584 487.29 883.843 490.543Q884.101 493.797 884.304 497.054Q884.507 500.311 884.654 503.571Q884.801 506.832 884.893 510.094Q884.984 513.357 885.02 516.62Q885.056 519.883 885.036 523.147C885.091 547.241 883.277 571.963 878.547 595.616C875.376 611.469 870.657 626.715 865.539 642.018C860.327 657.604 853.75 672.268 846.374 686.928C842.153 695.318 833.653 706.836 831.655 715.521C831.597 715.774 831.549 716.028 831.496 716.281C823.418 716.929 818.666 720.083 813.503 726.146C812.539 727.278 811.621 728.463 810.627 729.567C804.011 720.793 800.671 716.449 789.593 713.149Q789.052 682.423 789.424 651.695C806.656 649.051 821.127 643.252 831.722 628.692Q832.506 627.616 833.236 626.502Q833.966 625.388 834.64 624.24Q835.315 623.091 835.931 621.911Q836.548 620.73 837.106 619.521Q837.664 618.312 838.161 617.077Q838.659 615.841 839.095 614.583Q839.531 613.325 839.905 612.046Q840.278 610.768 840.588 609.473Q840.898 608.178 841.144 606.869Q841.39 605.56 841.571 604.24Q841.752 602.921 841.867 601.594Q841.983 600.268 842.033 598.937Q842.083 597.606 842.068 596.274Q842.052 594.943 841.971 593.613Q841.89 592.284 841.743 590.961Q841.597 589.637 841.385 588.322Q841.159 586.858 840.845 585.411Q840.53 583.963 840.129 582.538Q839.728 581.112 839.241 579.713Q838.754 578.314 838.184 576.947Q837.613 575.581 836.961 574.251Q836.308 572.921 835.577 571.633Q834.845 570.345 834.037 569.104Q833.229 567.863 832.347 566.673C841.244 553.187 844.678 539.257 841.31 523.235Q841.018 521.84 840.656 520.461Q840.294 519.082 839.863 517.724Q839.432 516.365 838.933 515.029Q838.434 513.694 837.869 512.385Q837.304 511.077 836.673 509.798Q836.043 508.519 835.349 507.274Q834.656 506.029 833.9 504.82Q833.144 503.611 832.329 502.442Q831.514 501.273 830.641 500.146Q829.767 499.019 828.839 497.938Q827.91 496.856 826.928 495.823Q825.946 494.79 824.914 493.807Q823.881 492.824 822.8 491.895Q821.72 490.965 820.593 490.091Q819.467 489.217 818.299 488.401Q817.13 487.585 815.922 486.828C803.47 478.873 788.91 475.882 774.43 479.193C760.426 482.395 747.438 490.34 739.712 502.648C731.85 515.173 728.352 529.774 731.779 544.324C733.446 551.401 736.299 557.581 740.381 563.569C731.673 575.742 728.039 589.491 730.552 604.418C733.018 619.068 742.07 633.294 754.234 641.829C762.905 647.912 773.058 650.663 783.482 651.733Q783.526 679.411 783.289 707.088L777.423 707.008C776.124 705.451 774.889 703.843 773.331 702.534C768.543 702.329 764.929 702.835 760.45 704.566C760.6 698.336 763.542 680.296 759.909 676.134C758.63 675.671 758.049 675.52 756.749 676.051C750.724 678.514 744.769 687.331 740.67 692.39C737.893 686.482 732.419 674.298 726.661 671.218C725.532 671.151 725.041 671.054 724.173 671.962C720.528 675.775 721.497 696.702 721.438 702.604C718.93 700.309 714.281 695.121 710.57 695.238C709.184 695.281 708.371 695.729 707.479 696.779C704.705 700.041 704.972 707.388 704.896 711.516C698.409 711.264 691.913 710.916 685.419 711.021Q684.768 646.497 685.294 581.973C689.402 586.461 703.597 603.374 708.966 603.376C710.331 603.376 711.119 602.934 711.99 601.924C714.601 598.895 713.549 582.943 713.503 578.632C709.858 572.307 704.313 567.578 699.328 562.338C694.12 556.864 688.942 551.245 684.069 545.474C689.209 545.562 696.896 546.653 701.644 544.664C702.176 543.905 702.176 544.241 702.055 543.579C700.897 537.258 696.73 530.425 694.062 524.603L676.218 485.965C667.817 467.829 660.194 449.244 651.628 431.21C650.696 429.249 649.682 427.389 648.297 425.705C643.003 423.727 611.61 425.09 603.079 425.017C603.048 418.871 601.945 397.838 603.704 393.283C603.856 393.225 604.008 393.17 604.159 393.11C606.279 392.271 607.786 391.248 608.763 389.121C610.477 385.385 609.723 380.308 609.423 376.313C608.63 375.157 608.53 374.857 607.094 374.514C601.745 373.235 569.518 373.088 564.552 374.611C562.682 377.105 563.141 384.7 563.597 387.899C563.884 389.907 565.168 391.101 566.753 392.159C567.331 392.544 567.928 392.882 568.545 393.2L568.685 425.294C557.767 413.635 546.432 402.423 535.359 390.92C529.094 384.411 504.454 356.672 498.513 353.786C491.545 357.836 473.376 378.495 466.782 385.417C453.982 398.852 440.779 411.948 428.505 425.87C419.298 425.641 355.117 425.04 351.068 427.049C346.37 432.461 337.998 453.84 334.414 461.622Q324.648 482.549 315.283 503.658C312.496 509.883 309.347 516.089 306.894 522.448C306.076 524.567 305.408 526.764 305.369 529.047C305.861 530.147 305.497 529.887 306.533 530.292C310.859 531.983 323.932 531.073 329.234 531.062C319.155 541.125 309.782 551.728 300.314 562.356C295.275 568.012 289.812 573.56 285.138 579.505C286.7 583.557 289.94 595.737 293.565 597.919C294.638 598.566 295.571 598.452 296.707 598.074C300.016 596.975 310.252 584.345 313.14 581.086C313.595 593.315 313.367 605.614 313.364 617.852Q313.013 659.056 313.243 700.261C309.631 701.191 306.422 702.198 303.186 704.126C303.112 697.721 304.216 682.638 299.409 678.117C298.584 677.341 297.501 676.959 296.372 677.152C291.801 677.932 286.65 687.113 284.566 690.898C283.415 692.988 282.478 695.184 281.543 697.376C279.407 692.291 273.714 677.353 268.298 675.674C267.11 675.306 266.118 675.218 265.043 675.959C260.471 679.114 260.666 694.708 260.525 700.251Q260.463 703.06 260.5 705.87C258.644 703.616 256.466 700.262 253.24 700.086C251.831 700.008 250.851 700.61 249.928 701.606C247.457 704.27 246.517 710.012 245.919 713.537C241.77 710.356 238.18 708.847 232.982 707.97L232.61 653.178C248.184 650.094 260.279 644.581 269.313 630.918C276.388 620.218 278.263 607.737 275.685 595.225C274.354 588.768 271.483 583.407 268.858 577.454C277.684 563.767 282.016 553.181 278.395 536.589C275.737 524.415 267.612 513.142 257.092 506.52C246.172 499.646 232.794 496.902 220.153 499.83Q218.968 500.096 217.798 500.42Q216.628 500.745 215.476 501.128Q214.324 501.511 213.193 501.951Q212.061 502.391 210.953 502.887Q209.845 503.383 208.763 503.935Q207.681 504.486 206.629 505.091Q205.576 505.695 204.555 506.352Q203.533 507.009 202.546 507.716Q201.559 508.423 200.609 509.178Q199.659 509.934 198.747 510.736Q197.836 511.539 196.966 512.385Q196.096 513.232 195.27 514.122Q194.443 515.011 193.663 515.941Q192.882 516.871 192.149 517.839Q191.415 518.806 190.731 519.809Q190.048 520.813 189.415 521.849C182.724 532.873 180.129 546.508 183.361 559.085C184.952 565.279 187.824 571.349 191.402 576.638C185.069 582.518 181.45 595.116 181.14 603.55Q181.094 604.72 181.105 605.89Q181.117 607.061 181.187 608.229Q181.257 609.398 181.385 610.562Q181.512 611.725 181.698 612.881Q181.883 614.037 182.126 615.182Q182.368 616.327 182.667 617.459Q182.966 618.591 183.321 619.706Q183.676 620.822 184.086 621.919Q184.495 623.015 184.959 624.09Q185.423 625.165 185.939 626.215Q186.455 627.266 187.023 628.29Q187.591 629.313 188.209 630.307Q188.827 631.302 189.494 632.264Q190.16 633.226 190.874 634.154Q191.588 635.082 192.346 635.974Q193.105 636.865 193.907 637.718C203.161 647.452 214.03 651.378 227.099 652.922C227.114 685.528 226.353 718.506 227.795 751.067L220.177 751.06C221.69 746.102 222.012 741.873 219.46 737.091C217.41 733.249 213.464 729.787 209.2 728.681C207.742 728.303 206.225 728.06 204.739 727.809C203.749 724.651 201.937 722.032 199.969 719.407Z"/>
	<path fill="#232C54" d="M370.775 279.649C373.45 279.477 376.086 279.378 378.763 279.596C388.853 280.421 397.459 285.236 403.887 292.966C412.849 303.742 415.457 316.008 414.114 329.752C418.123 329.528 425.469 328.284 428.638 330.981C429.633 331.828 429.718 332.637 429.746 333.851L428.721 334.92C427.102 335.557 425.56 335.737 423.829 335.822C414.409 336.283 404.659 335.649 395.21 335.627L333.25 335.608Q318.094 335.482 302.938 335.575C296.217 335.672 288.939 336.412 282.266 335.708C280.361 335.507 278.508 335.146 277.259 333.593C277.267 332.109 277.609 331.594 278.757 330.556C280.97 328.554 296.744 329.71 300.282 329.753C300.698 324.357 301.316 319.432 304.165 314.659C307.675 308.78 313.61 304.9 320.255 303.481C327.681 301.894 333.365 303.814 339.529 307.803C341.04 302.726 342.834 298.165 345.99 293.857C352.073 285.555 360.751 281.176 370.775 279.649Z"/>
	<path fill="#FAF8F6" d="M374.045 285.202Q375.371 285.209 376.696 285.267C385.4 285.666 393.292 290.251 398.999 296.669C407.496 306.225 409.036 317.207 408.242 329.535Q369.81 330.139 331.375 329.707L306.339 329.666C306.871 325.434 307.422 321.563 309.615 317.795C312.066 313.584 316.164 310.299 320.912 309.088C325.505 307.916 331.654 309.041 335.103 312.436C337.102 314.403 338.619 316.806 341.04 318.288C342.168 318.046 342.812 317.937 343.57 316.936C346.177 313.49 345.111 304.173 351.605 296.4C357.439 289.417 365.101 286.013 374.045 285.202Z"/>
	<path fill="#232C54" d="M726.349 377.177C730.255 376.854 734.265 377.08 738.039 378.202C747.332 380.964 752.376 387.372 756.746 395.554C760.402 393.047 764.614 391.684 769.077 392.214Q769.866 392.306 770.642 392.481Q771.417 392.655 772.17 392.91Q772.923 393.164 773.645 393.496Q774.367 393.828 775.051 394.234Q775.734 394.639 776.371 395.114Q777.009 395.589 777.593 396.128Q778.177 396.667 778.702 397.263Q779.227 397.86 779.686 398.509C783.539 403.849 783.303 408.93 782.326 415.061C785.888 415.079 796.438 414.078 799.202 415.244C800.397 415.749 800.492 416.351 800.876 417.461C800.611 418.293 800.59 418.806 799.914 419.418C796.687 422.339 763.28 421.057 756.75 421.054L708.565 421.209C702.009 421.279 686.543 422.418 680.704 421.083C679.151 420.728 678.018 420.217 677.104 418.852C677.111 417.52 677.15 417.472 677.949 416.401C683.399 413.807 692.512 415.1 698.593 415.147C698.132 405.461 698.982 396.749 705.111 388.82C710.498 381.849 717.686 378.223 726.349 377.177Z"/>
	<path fill="#FAF8F6" d="M727.24 382.609C727.431 382.604 727.621 382.596 727.812 382.592C736.234 382.427 744.545 386.182 748.528 393.908C750.293 397.33 751.278 400.985 754.13 403.712C756.796 404.09 762.556 398.435 766.787 398.073C769.055 397.88 771.389 398.402 773.091 399.985C776.989 403.612 777.584 410.042 777.563 415.032L761.795 415.053L704.779 415.067C704.159 407.3 704.455 399.942 709.186 393.299C713.493 387.252 720.082 383.878 727.24 382.609Z"/>
	<path fill="#F4C0BB" d="M683.743 278.773C688.7 280.611 700.069 293.797 704.403 298.249C698.122 304.963 690.846 310.699 684.475 317.353C681.002 316.487 667.579 301.846 664.087 298.266C670.483 291.539 676.766 284.907 683.743 278.773Z"/>
	<path fill="#FADFD6" d="M683.969 287.275C686.617 288.258 692.019 295.226 694.429 297.59Q689.549 302.928 684.896 308.464C681.131 305.26 677.669 301.668 674.145 298.202C677.264 294.426 680.623 290.849 683.969 287.275Z"/>
	<path fill="#F4C0BB" d="M268.215 406.466C274.19 409.519 284.321 420.314 289.007 425.662C282.614 431.822 276.405 438.307 270.37 444.816L269.069 444.953C264.426 441.906 254.869 430.118 250.278 425.515C255.543 418.789 262.305 412.689 268.215 406.466Z"/>
	<path fill="#FADFD6" d="M269.128 414.876C271.897 416.29 276.917 422.516 279.572 424.889C276.557 429.068 272.89 432.817 269.437 436.635C265.827 433.001 262.412 429.118 258.924 425.362L269.128 414.876Z"/>
	<path fill="#F4C0BB" d="M564.42 225.306C567.368 225.98 581.208 241.136 584.464 244.26Q575.231 253.748 565.384 262.598C563.593 261.911 547.98 246.765 545.516 244.145C549.958 238.279 558.898 230.833 564.42 225.306Z"/>
	<path fill="#FADFD6" d="M564.531 233.761C567.5 234.997 572.738 241.508 575.2 244.022Q570.274 248.781 565.281 253.47C565.17 253.477 565.058 253.502 564.947 253.491C562.851 253.294 556.579 246.138 554.768 244.405C557.835 240.664 561.162 237.226 564.531 233.761Z"/>
	<path fill="#FAF8F6" d="M652.051 351.136C653.113 351.562 653.533 351.923 654.247 352.814C654.273 354.083 654.377 355.209 654.609 356.465C655.681 357.344 658.064 356.861 659.563 357.023L659.949 357.695C659.293 359.219 657.878 360.21 656.661 361.285C657.342 362.765 658.134 364.069 657.947 365.748C656.509 367.129 655.704 365.647 654.071 366.496C654.005 366.943 653.893 367.826 653.753 368.233C653.261 369.66 652.087 369.709 650.816 370.158C649.595 369.217 649.447 368.637 649.029 367.127C648.958 366.875 648.895 366.62 648.828 366.366C647.72 366.147 646.915 365.979 645.959 365.363C645.526 364.109 645.463 364.073 645.891 362.83C646.76 362.351 647.548 361.924 648.286 361.255C646.975 360.916 645.553 360.737 644.553 359.764C644.312 358.544 644.365 357.946 644.747 356.764C646.223 356.163 647.408 356.582 648.97 356.796C650.553 355.551 649.122 353.457 652.051 351.136Z"/>
	<path fill="#FAF8F6" d="M472.224 276.684C473.015 276.8 474.057 276.914 474.74 277.337C475.772 277.978 476.286 278.854 476.662 279.961C476.953 280.822 477.132 281.293 477.786 281.969C478.661 282.157 479.474 282.342 480.313 282.663C480.976 282.916 481.324 283.208 481.466 283.97C481.693 285.185 481.503 285.64 480.741 286.459L477.4 286.334C476.592 287.553 477.247 288.473 477.115 289.774C476.974 291.162 476.48 291.357 475.471 292.197C473.979 292.07 472.801 292.094 471.726 290.984C471.91 289.597 471.939 288.404 471.86 287.006C470.472 286.93 469.162 286.785 467.79 286.563C466.718 285.636 466.378 285.496 466.005 284.154C467.012 282.611 469.533 283.035 470.286 281.995C471.126 280.836 471.255 278.241 472.224 276.684Z"/>
	<path fill="#FADFD6" d="M227.326 757.406C237.427 756.692 247.808 757.087 257.936 757.08L316.724 757.171L506.998 756.984L693.553 757.068L752.743 757.097C762.745 757.1 773.144 756.51 783.108 757.271C773.287 770.981 753.584 790.258 740.577 801C665.265 863.196 571.818 890.53 474.813 881.18Q470.986 880.793 467.168 880.328Q463.35 879.863 459.543 879.319Q455.735 878.776 451.939 878.154Q448.144 877.532 444.362 876.832Q440.58 876.132 436.813 875.354Q433.046 874.577 429.296 873.722Q425.546 872.867 421.814 871.935Q418.083 871.003 414.371 869.995Q410.659 868.987 406.969 867.902Q403.279 866.817 399.612 865.657Q395.945 864.497 392.303 863.261Q388.66 862.026 385.044 860.716Q381.428 859.405 377.84 858.021Q374.251 856.637 370.692 855.179Q367.133 853.721 363.604 852.19Q360.076 850.659 356.579 849.056Q353.083 847.453 349.621 845.779Q346.158 844.104 342.731 842.358Q339.303 840.613 335.913 838.797Q332.522 836.981 329.169 835.096Q325.817 833.211 322.504 831.258Q319.191 829.304 315.918 827.283Q312.646 825.261 309.416 823.173Q306.186 821.084 303 818.93Q299.814 816.776 296.673 814.556Q293.531 812.337 290.436 810.053Q287.341 807.77 284.294 805.423Q281.247 803.076 278.248 800.667Q275.25 798.258 272.302 795.788Q269.354 793.318 266.457 790.787Q263.56 788.257 260.716 785.668Q257.872 783.078 255.082 780.431C247.497 773.122 239.843 765.848 233.13 757.715Q230.226 757.596 227.326 757.406Z"/>
	<path fill="#FAF8F6" d="M498.209 388.545C525.96 415.096 552.012 443.543 578.826 471.036C612.444 505.505 646.854 539.496 678.995 575.356L679.022 583.248L679.105 671.29C679.136 686.77 679.641 702.412 679.095 717.876C626.815 718.98 574.372 717.851 522.071 718.045Q522.669 652.12 522.48 586.192L595.883 586.359C606.524 586.356 617.805 587.175 628.354 586.327C629.944 586.199 630.395 586.211 631.691 585.298C632.266 584.133 632.545 583.758 632.156 582.418C631.343 579.618 622.931 569.9 620.601 566.66C613.659 557.009 606.659 547.309 599.896 537.536C595.726 531.511 591.731 523.442 586.439 518.492C547.684 517.984 508.832 518.151 470.073 518.328C451.626 518.413 432.855 517.634 414.451 518.519C412.974 518.59 409.936 518.548 408.889 519.593C403.505 524.969 365.121 577.527 365.215 582.801C365.233 583.781 365.404 584.216 365.893 585.03C369.186 587.706 403.194 586.001 410.251 586.293C412.409 596.51 410.747 623.545 410.707 635.562C410.616 663.08 411.358 690.678 410.756 718.182L319.541 718.049Q318.854 656.916 319.094 595.781C319.124 589.159 319.171 582.547 318.905 575.928L498.209 388.545Z"/>
	<path fill="#FADFD6" d="M498.209 388.545C525.96 415.096 552.012 443.543 578.826 471.036C612.444 505.505 646.854 539.496 678.995 575.356L679.022 583.248Q621.655 529.28 565.826 473.723C543.639 451.591 521.006 429.546 500.364 405.961C486.349 417.534 474.47 431.065 462.092 444.303Q445.041 462.388 427.645 480.143Q388.192 520.102 349.198 560.508C341.204 568.891 332.677 576.729 325.054 585.47C322.069 588.893 319.587 591.095 319.094 595.781C319.124 589.159 319.171 582.547 318.905 575.928L498.209 388.545Z"/>
	<path fill="#232C54" d="M567.624 608.194C569.427 608.023 571.216 608.117 573.019 608.253C577.729 608.608 582.091 610.167 585.682 613.295C594.962 621.378 593.589 633.221 593.539 644.262Q593.529 656.136 593.177 668.004C593.142 669.203 592.628 673.315 593.399 674.231C593.951 674.887 595.887 674.643 596.903 675.825C597.407 679.211 597.916 687.094 596.054 689.986C590.738 692.1 575.851 690.851 569.5 690.807C564.562 690.816 542.54 691.973 539.968 690.082C538.678 686.149 538.457 679.689 539.558 675.707C541.292 674.69 543.692 674.808 545.664 674.668C546.202 664.305 545.898 653.831 545.839 643.455C545.807 637.96 545.384 632.142 546.334 626.719C547.024 622.777 548.416 618.91 550.936 615.756C555.182 610.442 561.178 608.831 567.624 608.194Z"/>
	<path fill="#FAF8F6" d="M552.117 638.475L566.546 638.58L566.497 674.535C561.773 674.674 557.028 674.581 552.301 674.578C551.353 663.277 552.168 650.01 552.117 638.475Z"/>
	<path fill="#FAF8F6" d="M572.884 638.639L586.622 638.734Q586.421 656.636 586.509 674.538L572.931 674.528L572.884 638.639Z"/>
	<path fill="#FAF8F6" d="M565.647 614.558L566.135 614.809C567.411 619.032 566.515 627.842 566.494 632.566L553.449 632.544L552.608 632.174C552.512 631.879 552.409 631.587 552.321 631.29C551.555 628.724 552.561 625.438 553.79 623.164C556.616 617.933 560.202 616.065 565.647 614.558Z"/>
	<path fill="#FAF8F6" d="M573.327 614.219C576.931 615 580.288 616.29 582.881 619.006C586.417 622.709 586.93 627.529 586.834 632.401C582.24 632.524 577.626 632.457 573.03 632.478C573.004 626.417 572.761 620.257 573.327 614.219Z"/>
	<path fill="#D4CFDE" d="M545.205 680.619L574.017 680.611C579.218 680.604 584.64 680.263 589.797 680.834C590.671 682.088 590.505 683.037 590.592 684.543L562.223 684.56C556.827 684.572 551.042 685.008 545.697 684.296C544.946 683.104 545.204 682.002 545.205 680.619Z"/>
	<path fill="#232C54" d="M631.323 608.614Q633.475 608.418 635.635 608.359C642.543 608.189 649.201 609.203 654.315 614.317C657.099 617.1 658.974 620.725 659.85 624.549C661.325 630.985 660.533 638.426 660.515 645.015L660.462 674.83C661.772 674.698 663.686 674.299 664.943 674.722C666.248 675.161 667.067 676.658 667.496 677.878C668.817 681.639 667.876 686.476 666.092 689.916C663.462 691.793 649.141 690.714 645.008 690.683C635.911 690.747 621.2 691.733 612.719 690.634C611.25 690.444 610.221 690.237 609.432 688.868C608.015 686.409 607.923 680.45 608.855 677.777C609.542 675.81 610.683 675.064 612.481 674.218C614.985 673.039 610.608 630.562 615.698 620.32C618.975 613.724 624.644 610.76 631.323 608.614Z"/>
	<path fill="#FAF8F6" d="M640.258 638.565Q647.33 638.537 654.4 638.664C654.387 650.624 654.554 662.615 654.172 674.568L640.261 674.573L640.258 638.565Z"/>
	<path fill="#FAF8F6" d="M619.887 638.486L633.627 638.437Q633.268 656.473 633.386 674.512L619.969 674.568L619.887 638.486Z"/>
	<path fill="#FAF8F6" d="M640.266 614.512C643.858 615.194 647.015 616.372 649.693 618.951C653.483 622.601 654.313 627.361 654.387 632.376C649.658 632.47 644.914 632.388 640.184 632.384Q640.055 623.447 640.266 614.512Z"/>
	<path fill="#FAF8F6" d="M632.582 614.464L633.634 614.796C634.819 618.955 633.648 627.929 633.576 632.542L620.933 632.534C619.994 632.146 620.083 632.417 619.776 631.583C618.934 629.302 620.357 625.835 621.43 623.815C624.05 618.877 627.316 616.119 632.582 614.464Z"/>
	<path fill="#D4CFDE" d="M650.872 680.741C653.903 680.632 658.545 679.943 661.277 681.425C661.372 682.588 661.28 682.667 660.678 683.683C659.527 684.365 658.584 684.662 657.239 684.748C654.18 684.944 651.001 684.517 647.922 684.506L626.25 684.643L621.232 684.719C620.777 684.729 620.323 684.752 619.867 684.748C617.935 684.728 615.567 684.185 614.203 682.772C617.207 679.72 645.077 680.796 650.872 680.741Z"/>
	<path fill="#232C54" d="M362.079 608.612C366.724 608.337 371.719 609.113 375.87 611.237C381.042 613.883 385.207 618.702 386.97 624.248C389.502 632.218 388.068 655.259 388.018 664.365C388.003 667.189 387.398 671.45 388.242 674.115C388.949 674.448 389.891 674.794 390.498 675.276C391.379 675.975 391.439 676.348 391.538 677.381C391.792 680.033 392.183 688.115 390.488 690.193C385.29 692.767 369.948 691.738 363.802 691.814C357.4 691.806 342.346 693.004 336.875 691.156C335.514 689.765 334.978 688.387 334.617 686.476C333.986 683.141 333.905 678.466 336.114 675.639C337.212 674.234 339.358 674.23 341 674.007L340.976 646.188C340.976 640.731 340.57 634.796 341.391 629.403C341.923 625.907 343.086 622.611 344.985 619.621C349.051 613.213 354.846 610.124 362.079 608.612Z"/>
	<path fill="#FAF8F6" d="M347.629 637.878L361.029 637.945L361.124 674.54L347.544 674.528L347.629 637.878Z"/>
	<path fill="#FAF8F6" d="M367.834 638.087L381.484 638.085L381.46 674.46L367.863 674.471Q368.008 656.279 367.834 638.087Z"/>
	<path fill="#F4C0BB" d="M340.929 680.905C349.413 680.405 358.149 680.841 366.659 680.844C372.381 680.846 378.973 680.147 384.581 681.13C385.194 682.517 385.007 683.834 384.99 685.328C377.373 685.806 369.608 685.551 361.97 685.569C355.185 685.584 348.209 685.918 341.454 685.352C340.768 684.035 340.954 682.359 340.929 680.905Z"/>
	<path fill="#FAF8F6" d="M367.794 615.125C370.947 615.761 373.666 616.944 376.053 619.157C379.76 622.594 381.306 627.075 381.593 632.018L367.562 632.045C367.553 626.401 367.508 620.764 367.794 615.125Z"/>
	<path fill="#FAF8F6" d="M360.54 615.421L360.956 615.603C362.331 618.518 361.368 628.153 361.304 631.795C357.283 632.044 353.222 631.852 349.196 631.77L348.299 631.459L347.617 630.045C347.684 629.132 347.805 628.404 348.139 627.543C350.388 621.751 355.011 617.847 360.54 615.421Z"/>
	<path fill="#232C54" d="M493.667 447.113C500.269 446.638 506.005 447.25 511.813 450.665C517.79 454.18 522.108 459.773 523.798 466.513C525.593 473.667 525.045 481.593 521.182 487.986C516.646 495.494 510.024 498.697 501.855 500.761C495.568 501.57 489.629 500.767 484.142 497.399Q483.531 497.024 482.94 496.619Q482.348 496.213 481.778 495.779Q481.207 495.345 480.659 494.883Q480.111 494.421 479.587 493.932Q479.063 493.443 478.563 492.928Q478.064 492.414 477.591 491.875Q477.118 491.336 476.673 490.774Q476.227 490.213 475.81 489.629Q475.393 489.046 475.006 488.443Q474.619 487.839 474.262 487.218Q473.906 486.596 473.581 485.957Q473.255 485.318 472.963 484.663Q472.67 484.009 472.41 483.341Q472.15 482.673 471.924 481.992Q471.698 481.312 471.506 480.621Q471.314 479.93 471.157 479.231C469.559 471.964 471.109 464.582 475.267 458.442C479.746 451.829 486.027 448.599 493.667 447.113Z"/>
	<path fill="#D4CFDE" d="M492.713 453.416L493.924 453.6C495.579 456.29 494.793 467.49 494.795 471.103L479.375 471.054C478.28 471.029 478.229 471.013 477.359 470.35L477.778 470.615L477.17 469.614C477.295 468.086 477.822 466.663 478.494 465.287C481.531 459.064 486.407 455.735 492.713 453.416Z"/>
	<path fill="#FAF8F6" d="M500.797 477.085L518.773 477.04C517.659 481.916 516.039 485.061 512.713 488.742C508.902 492.077 505.398 493.496 500.644 494.928Q500.665 486.006 500.797 477.085Z"/>
	<path fill="#FAF8F6" d="M500.941 453.231C503.182 453.719 505.273 454.343 507.313 455.416C513.648 458.75 516.529 464.318 518.635 470.82C512.735 471.075 506.769 470.959 500.86 471.006L500.941 453.231Z"/>
	<path fill="#D4CFDE" d="M477.172 477.569C483.027 477.332 488.968 477.513 494.833 477.502L494.619 494.65C491.05 493.842 487.968 492.821 484.962 490.64C480.464 487.378 477.988 483.014 477.172 477.569Z"/>
	<path fill="#FAF8F6" d="M747.947 563.642Q746.911 562.444 745.958 561.18Q745.005 559.916 744.138 558.591Q743.271 557.266 742.494 555.886Q741.717 554.507 741.034 553.078Q740.35 551.65 739.764 550.179Q739.177 548.708 738.69 547.202Q738.203 545.695 737.817 544.16Q737.432 542.624 737.149 541.066C734.887 528.367 738.589 514.684 745.943 504.195Q746.63 503.219 747.364 502.279Q748.099 501.338 748.88 500.436Q749.661 499.534 750.486 498.672Q751.312 497.81 752.179 496.991Q753.047 496.171 753.954 495.396Q754.861 494.621 755.807 493.893Q756.752 493.164 757.732 492.484Q758.713 491.804 759.726 491.174Q760.74 490.544 761.783 489.965Q762.827 489.387 763.898 488.861Q764.97 488.336 766.066 487.865Q767.163 487.394 768.281 486.978Q769.4 486.563 770.538 486.204Q771.676 485.845 772.831 485.544Q773.985 485.242 775.154 484.999Q776.322 484.756 777.501 484.572Q778.742 484.359 779.992 484.208Q781.242 484.058 782.499 483.97Q783.755 483.883 785.014 483.859Q786.273 483.834 787.532 483.874Q788.79 483.913 790.045 484.015Q791.301 484.118 792.549 484.283Q793.797 484.449 795.036 484.677Q796.274 484.905 797.499 485.195Q798.725 485.485 799.934 485.837Q801.143 486.188 802.333 486.6Q803.523 487.012 804.691 487.483Q805.859 487.954 807.001 488.484Q808.144 489.013 809.259 489.599Q810.373 490.185 811.457 490.827Q812.54 491.468 813.59 492.164Q814.64 492.859 815.654 493.606C826.155 501.26 834.409 513.361 836.371 526.331C838.72 541.866 834.049 553.903 824.903 566.19C827.376 569.854 829.888 573.545 831.832 577.526C837.632 589.4 837.285 601.767 833.101 614.062C827.943 626.923 818.874 635.842 806.151 641.257C800.667 643.59 795.12 644.85 789.235 645.651Q788.984 637.392 789.159 629.131L788.971 617.244C794.771 611.536 803.842 601.561 808.47 594.988C809.36 593.724 810.316 592.315 810.039 590.709C809.003 589.763 808.529 589.404 807.127 589.215C803.424 589.957 791.91 605.027 789.038 608.355L788.979 567.233C793.939 562.05 808.132 546.332 810.852 540.682C811.502 539.332 811.69 538.436 811.151 537.042C810.627 536.904 810.137 536.743 809.581 536.755C808.417 536.78 807.135 537.377 806.237 538.092C802.05 541.427 793.295 553.345 789.336 558.132C789.197 552.87 789.004 547.6 789.091 542.336C789.16 538.162 789.646 533.613 789.154 529.482C788.931 527.609 788.536 526.547 787.054 525.36C785.793 525.263 785.316 525.41 784.224 526.043C782.232 529.327 783.356 564.238 783.308 571.325C778.441 565.535 770.39 552.86 765.705 548.73C764.397 548.414 763.796 548.401 762.512 548.813C761.947 549.526 761.688 549.613 761.636 550.57C761.356 555.656 779.292 576.077 783.45 580.389Q783.573 598.074 783.447 615.759C780.137 612.718 777.525 607.693 773.698 605.437C772.454 604.704 771.124 604.163 769.685 604.544C769.145 605.3 768.923 605.374 768.896 606.352C768.762 611.17 779.954 621.436 783.479 625.344L783.409 645.667C774.221 644.856 765.787 642.153 758.167 636.862C746.995 629.104 738.722 617.264 736.425 603.765C733.618 587.268 738.744 576.711 747.947 563.642Z"/>
	<path fill="#FADFD6" d="M789.652 637.36C804.285 635.96 815.007 630.242 825.227 619.76C826.666 618.284 829.148 615.06 830.964 614.365C831.524 614.151 832.483 614.15 833.101 614.062C827.943 626.923 818.874 635.842 806.151 641.257C800.667 643.59 795.12 644.85 789.235 645.651Q788.984 637.392 789.159 629.131C790.289 630.513 789.675 635.519 789.652 637.36Z"/>
	<path fill="#FAF8F6" d="M226.92 504.684C237.439 503.721 248.585 507.327 256.984 513.631C265.981 520.384 271.576 530.665 273.113 541.746C275.16 556.504 269.196 566.135 260.587 577.431C265.822 583.998 269.297 590.387 270.562 598.796Q270.726 599.826 270.839 600.862Q270.952 601.899 271.013 602.939Q271.073 603.98 271.082 605.023Q271.091 606.065 271.048 607.107Q271.004 608.149 270.909 609.187Q270.814 610.225 270.667 611.257Q270.52 612.289 270.321 613.313Q270.123 614.336 269.873 615.349Q269.624 616.361 269.324 617.36Q269.025 618.358 268.676 619.341Q268.327 620.323 267.929 621.287Q267.531 622.251 267.086 623.193Q266.64 624.136 266.148 625.055Q265.657 625.974 265.119 626.868Q264.582 627.761 264.001 628.627Q263.42 629.493 262.796 630.328C255.25 640.315 244.828 645.229 232.658 646.919C232.45 639.487 232.619 632.007 232.617 624.57C236.211 620.498 250.513 607.336 251.362 603.716C251.516 603.062 251.35 602.459 250.893 601.944C250.391 601.376 249.746 601.03 248.998 601.03C244.472 601.029 236.617 611.607 233.385 615.065C232.954 602.489 233.323 589.877 233.487 577.298C237.178 573.396 254.52 558.302 254.521 554.259C254.521 553.493 254.161 553.384 253.667 552.884C252.79 552.669 251.907 552.427 250.992 552.551C247.476 553.027 236.487 565.733 233.434 568.922C233.169 560.118 233.303 551.292 233.322 542.484C232.532 541.515 231.795 541.211 230.691 540.688C229.935 540.783 229.397 540.666 228.839 541.254C226.127 544.111 227.43 573.612 227.482 579.353C224.363 575.612 214.735 564.398 211.372 561.807C210.149 560.865 208.403 560.313 206.889 560.621C205.98 560.807 206.025 561.09 205.547 561.794C205.534 563.476 206.207 564.774 207.171 566.117C209.885 569.902 213.977 573.055 217.207 576.429C220.786 580.168 224.037 584.283 227.32 588.285L227.431 622.134C223.287 618.748 220.2 614.137 215.988 610.946C214.812 610.055 213.997 609.648 212.5 610.073C211.285 610.417 211.138 610.756 210.67 611.805C211.297 615.924 223.181 626.558 226.672 630.415L226.829 647.192C218.357 646.032 211.017 643.58 204.031 638.529Q203.206 637.935 202.41 637.302Q201.615 636.668 200.852 635.996Q200.09 635.324 199.361 634.615Q198.632 633.906 197.939 633.162Q197.246 632.418 196.591 631.641Q195.936 630.864 195.32 630.055Q194.704 629.246 194.128 628.408Q193.553 627.57 193.02 626.704Q192.486 625.839 191.996 624.948Q191.507 624.057 191.061 623.143Q190.616 622.229 190.216 621.294Q189.817 620.359 189.464 619.406Q189.111 618.452 188.805 617.482Q188.5 616.513 188.243 615.529Q187.986 614.545 187.777 613.55Q187.569 612.555 187.41 611.551C186.198 603.432 187.332 592.499 192.061 585.601C194.072 582.669 196.758 580.235 198.888 577.366L199.237 576.89C194.355 569.065 189.602 563.513 188.313 553.981C186.765 542.529 190.228 530.292 197.21 521.127C204.422 511.662 215.266 506.222 226.92 504.684Z"/>
	<path fill="#F4C0BB" d="M498.866 361.877C506.5 368.13 513.164 376.908 519.976 384.127C532.606 397.513 545.576 410.708 558.459 423.855Q609.901 475.628 659.752 528.934C675.73 545.816 692.205 562.457 707.547 579.914L707.543 596.335C695.604 584.552 684.431 571.933 672.908 559.745L612.218 496.101C603.311 486.796 594.026 477.829 585.008 468.627L553.545 435.875Q527.91 410.09 502.753 383.839C501.431 382.422 499.84 381.384 498.263 380.275C492.09 384.36 485.774 392.566 480.479 398.048L434.618 446.244L354.962 529.744C335.205 550.201 314.924 570.228 295.657 591.15L292.18 580.34Q362.196 502.79 435.128 427.974L476.644 384.33C483.809 376.838 490.873 368.45 498.866 361.877Z"/>
	<path fill="#FAF8F6" d="M417.357 586.525L515.705 586.473Q516.275 652.477 515.529 718.479L505.295 718.451L505.256 613.375C505.26 611.284 505.592 608.137 504.655 606.237C504.14 605.191 503.654 604.715 502.561 604.422C497.742 603.13 469.857 604.428 462.477 604.442C453.492 604.46 444.49 603.944 435.51 604.06C434.016 604.08 432.361 604.008 431.02 604.719C428.913 612.865 429.955 633.638 429.927 643.111L429.674 718.475L416.996 718.434C416.857 702.494 417.248 686.519 417.292 670.575L417.357 586.525Z"/>
	<path fill="#B2B6CF" d="M727.693 681.876C732.042 686.287 733.045 693.082 736.362 698.132C737.405 699.72 738.277 700.264 740.13 700.619C743.938 699.569 751.837 687.841 755.592 684.146C755.59 684.259 755.586 684.371 755.587 684.483C755.662 692.225 753.145 699.938 753.595 707.581C753.724 709.773 754.098 711.482 755.772 713.022C759.281 713.901 762.041 710.976 764.982 709.346C766.547 708.478 767.589 708.24 769.362 708.749C770.72 710.513 770.104 711.726 770.713 713.673C771.087 714.867 771.624 714.91 772.674 715.296C774.844 715.045 776.699 713.184 778.67 712.21C779.856 712.322 780.207 712.271 781.097 713.148C785.535 717.52 787.257 743.548 787.474 750.535L762.976 750.509L685.484 750.664L685.439 717.454C692.057 717.411 698.583 717.748 705.186 717.885C706.878 717.92 708.667 717.704 709.85 716.339C712.553 713.222 711.621 704.891 711.645 700.973C715.075 704.261 718.228 709.979 722.765 711.6C723.927 711.451 724.293 711.456 725.126 710.525C728.738 706.487 727.587 687.901 727.693 681.876Z"/>
	<path fill="#232C54" d="M740.932 712.916C741.801 712.998 742.565 713.152 743.414 713.346C745.154 715.034 745.562 718.263 745.706 720.593C745.934 724.267 746.093 728.258 743.577 731.066C742.375 730.88 741.009 730.792 740.126 729.841C738.613 728.21 738.039 725.093 738 722.941C737.932 719.28 738.414 715.677 740.932 712.916Z"/>
	<path fill="#232C54" d="M704.275 727.808C705.946 727.98 707.155 728.281 708.391 729.472C710.668 731.667 712.689 734.924 712.413 738.224C712.285 739.754 711.18 740.518 710.102 741.458C709.348 741.299 708.484 741.158 707.825 740.731C705.454 739.193 702.382 734.339 702.355 731.497C702.339 729.823 703.217 728.949 704.275 727.808Z"/>
	<path fill="#232C54" d="M722.656 730.927C723.803 730.901 725.25 730.758 726.292 731.334C727.524 732.016 728.332 733.219 728.714 734.548C729.462 737.149 728.887 741.177 727.56 743.511C726.791 743.569 726.007 743.606 725.238 743.519C723.903 743.368 722.995 742.836 722.328 741.642C720.791 738.893 721.639 733.772 722.656 730.927Z"/>
	<path fill="#232C54" d="M760.897 731.039C761.862 731.221 762.916 731.44 763.686 732.102C764.479 732.785 764.839 733.873 764.95 734.881C765.29 737.961 763.693 742.093 761.83 744.503C760.226 744.064 759.186 743.904 758.233 742.41C757.318 740.975 757.252 738.394 757.571 736.786C758.059 734.333 758.763 732.429 760.897 731.039Z"/>
	<path fill="#232C54" d="M769.788 736.927C770.965 737.192 772.268 737.515 773.141 738.424C773.86 739.172 774.141 740.15 773.879 741.154C773.49 742.638 772.067 743.479 770.886 744.284C769.809 744.08 768.938 743.66 768.183 742.827C767.425 741.991 766.969 740.734 767.283 739.614C767.709 738.093 768.592 737.724 769.788 736.927Z"/>
	<path fill="#B2B6CF" d="M523.141 724.226L678.989 724.021C679.001 732.512 679.801 741.809 678.743 750.196L678.048 750.686L541.67 750.52C541.626 746.854 542.69 739.22 540.266 736.421C538.074 733.889 525.708 735.206 521.953 735.239C521.935 731.833 521.424 727.932 522.235 724.635L523.141 724.226Z"/>
	<path fill="#F4C0BB" d="M447.532 621.386C460.499 621.179 473.528 621.414 486.498 621.593C487.126 653.89 486.862 686.255 487.019 718.563C473.959 718.398 460.883 718.523 447.821 718.512C447.319 707.135 447.654 695.597 447.634 684.2L447.532 621.386Z"/>
	<path fill="#232C54" d="M455.713 631.99C461.516 631.443 470.708 630.74 476.124 632.97C477.516 634.236 477.745 636.255 477.936 638.045C478.442 642.81 478.807 663.037 477.663 666.957C477.323 668.122 476.717 668.912 475.958 669.826C470.835 670.867 461.303 671.354 456.478 669.362C456.015 668.87 455.737 668.441 455.533 667.79C454.096 663.203 453.751 635.473 455.713 631.99Z"/>
	<path fill="#FAF8F6" d="M460.966 638.866C464.509 638.681 468.052 638.813 471.596 638.896Q471.77 651.439 471.574 663.981C468.046 664.13 464.497 664.104 460.967 664.15L460.966 638.866Z"/>
	<path fill="#B2B6CF" d="M267.869 684.202C274.097 689.877 274.057 700.377 278.784 706.938C279.624 708.104 280.537 708.97 282.027 709.141C285.016 709.483 289.908 689.672 295.054 685.591L295.832 685.8C298.765 691.932 295.345 704.84 297.039 712.138C297.412 713.743 297.935 714.438 299.322 715.279C303.147 715.037 305.413 710.91 308.344 708.815C309.932 707.68 311.76 706.79 313.484 705.879C313.752 720.772 314.548 735.641 314.428 750.541L296.25 750.504L234.397 750.507C233.878 746.424 232.357 717.01 234.058 714.505C238.792 712.68 243.193 721.511 247.577 722.404C252.965 719.483 251.65 712.757 253.62 707.629C253.697 707.428 253.781 707.229 253.861 707.029C256.307 709.366 258.161 712.466 260.732 714.622C261.772 715.494 262.362 715.65 263.683 715.588C268.181 712.243 266.495 698.375 266.725 692.899C266.85 689.93 267.277 687.11 267.869 684.202Z"/>
	<path fill="#232C54" d="M299.209 726.552C300.914 726.385 303.427 725.941 304.851 727.04C306.626 731.456 306.916 740.457 305.97 745.157C305.071 745.343 304.115 745.585 303.198 745.636C302.087 745.699 301.049 745.406 300.368 744.465C297.935 741.099 299.188 730.9 299.209 726.552Z"/>
	<path fill="#232C54" d="M260.266 725.214C261.091 725.404 262.299 725.473 262.903 726.088C265.572 728.81 267.724 737.856 267.94 741.64C268.051 743.568 267.163 744.5 265.93 745.79C265.216 745.638 264.537 745.379 263.846 745.147C260.549 742.108 258.498 733.611 258.394 729.161C258.348 727.202 258.906 726.557 260.266 725.214Z"/>
	<path fill="#232C54" d="M280.8 716.877C281.822 716.969 283.297 716.975 284.068 717.719C285.844 719.432 286.58 723.003 286.717 725.371C286.896 728.472 287.214 730.48 285.048 732.931C283.701 732.879 282.2 732.779 281.223 731.71C279.225 729.524 278.827 725.682 278.821 722.864C278.816 720.146 278.789 718.907 280.8 716.877Z"/>
	<path fill="#B2B6CF" d="M320.919 724.471Q365.198 724.095 409.476 724.479L409.451 734.876C405.522 734.716 399.173 733.715 395.757 735.619C395.158 740.493 395.37 745.611 395.291 750.525L321.276 750.546L320.919 724.471Z"/>
	<path fill="#F4C0BB" d="M436.409 610.466L498.452 610.503C498.469 620.125 498.963 717.366 498.376 718.305C498.2 718.587 497.923 718.792 497.697 719.036C496.368 719.09 495.544 719.26 494.323 718.637C493.667 717.287 493.452 716.184 493.35 714.686C492.723 705.437 493.474 695.564 493.445 686.249L493.132 620.491C493.085 619.839 493.089 618.897 492.899 618.25C492.507 616.912 492.087 616.265 490.842 615.609C487.956 614.091 445.549 614.39 441.871 615.799C441.146 617.155 441.001 618.444 440.906 619.964C440.41 627.941 440.96 636.34 440.944 644.36L440.915 696.907C440.942 700.824 441.852 714.096 440.757 716.989C440.27 718.275 440.072 718.375 438.889 718.832C438.056 718.639 437.64 718.55 436.998 717.939C436.442 717.409 436.584 717.602 436.53 716.826C435.77 705.735 436.407 694.267 436.372 683.138L436.409 610.466Z"/>
	<path fill="#FAF8F6" d="M401.508 741.481C446.25 741.497 491.087 740.713 535.814 741.371L535.747 750.422C531.283 751.166 526.146 750.712 521.603 750.695L497.049 750.659L401.58 750.567L401.508 741.481Z"/>
	<path fill="#FAF8F6" d="M416.003 724.978C449.169 725.119 482.359 724.673 515.52 725.122L515.518 735.003L415.999 735.027L416.003 724.978Z"/>
	<path fill="#F4C0BB" d="M574.899 431.031C598.137 430.848 621.696 432.445 644.883 431.07Q647.558 437.235 650.005 443.493C645.159 444.651 636.769 443.766 631.533 443.747L586.773 443.533C583.035 439.189 578.884 435.149 574.899 431.031Z"/>
	<path fill="#F4C0BB" d="M367.413 432.251Q394.683 431.942 421.954 432.116C418.16 436.26 414.461 440.613 410.24 444.328C407.996 444.177 405.714 444.208 403.463 444.16C385.448 444.076 367.423 444.491 349.41 444.183Q352 438.204 354.678 432.264L367.413 432.251Z"/>
	<path fill="#F4C0BB" d="M346.251 450.372C365.494 450.033 384.867 450.118 404.11 450.486C401.253 454.135 397.926 457.497 394.801 460.921L391.344 464.509C374.191 464.164 357.033 464.612 339.878 464.285Q343.232 457.405 346.251 450.372Z"/>
	<path fill="#F4C0BB" d="M592.721 449.508L652.917 449.441L658.445 462.316C640.632 462.022 622.802 462.59 604.983 462.282Q598.76 455.984 592.721 449.508Z"/>
	<path fill="#F4C0BB" d="M610.671 468.211C627.477 468.64 644.376 468.381 661.19 468.252Q664.723 475.916 667.989 483.697C663.228 484.27 658.033 483.894 653.214 483.907L625.889 484.025C620.628 478.998 615.533 473.626 610.671 468.211Z"/>
	<path fill="#B2B6CF" d="M574.522 392.639L596.993 392.643L597 424.821L574.511 424.715L574.522 392.639Z"/>
	<path fill="#F4C0BB" d="M337.569 470.343Q361.621 470.765 385.673 470.383L375.747 480.631L372.066 484.616C358.334 484.228 344.558 484.356 330.822 484.472C332.967 479.707 335.072 474.939 337.569 470.343Z"/>
	<path fill="#FAF8F6" d="M184.488 721.592C186.936 721.283 189.87 721.045 192.262 721.72C195.531 722.642 196.875 724.759 198.43 727.606C195.667 728.882 193.174 730.411 191.029 732.599C185.82 737.912 185.563 744.17 185.574 751.143C175.861 751.209 166.105 751.464 156.399 751.107C156.035 750.355 155.689 749.577 155.551 748.746C155.031 745.607 155.938 742.069 157.718 739.465C159.475 736.894 162.088 734.967 165.192 734.426C174.075 732.877 172.452 739.614 177.415 742.072C178.688 742.703 181.254 742.733 182.473 742.008C187.257 739.163 177.689 732.453 178.895 727.351C179.539 724.629 182.253 722.878 184.488 721.592Z"/>
	<path fill="#F4C0BB" d="M631.367 490.045L670.804 490.034Q674.269 497.408 677.968 504.668C668.755 506.216 654.731 504.747 645.069 504.457Q638.001 497.457 631.367 490.045Z"/>
	<path fill="#F4C0BB" d="M336.781 490.24L367.165 490.14C362.559 495.038 358.011 500.046 352.993 504.528Q337.427 504.836 321.857 504.853Q325.055 497.602 328.34 490.391L336.781 490.24Z"/>
	<path fill="#F4C0BB" d="M384.089 564.707Q395.553 564.579 407.018 564.704Q407.013 572.323 406.883 579.94L395.498 579.983Q384.059 579.977 372.62 580.13C376.459 574.99 379.967 569.634 384.089 564.707Z"/>
	<path fill="#FAF8F6" d="M201.949 733.607C205.176 733.429 208.164 733.976 210.741 736.028C213.634 738.332 215.968 742.116 216.172 745.872C216.253 747.361 215.793 748.907 214.598 749.881C212.539 751.561 207.436 750.921 204.875 750.911C201.742 750.99 196.207 751.788 193.378 750.832C192.202 750.434 191.366 749.682 190.976 748.476C190.07 745.673 192.239 741.557 193.736 739.308C196.022 735.871 197.94 734.484 201.949 733.607Z"/>
	<path fill="#F4C0BB" d="M319.296 510.558Q333.378 510.92 347.464 510.92L338.001 521.325L335.001 524.813L312.672 524.757C315.058 520.075 317.265 515.407 319.296 510.558Z"/>
	<path fill="#FAF8F6" d="M815.77 733.676C818.717 733.677 821.998 734.243 824.264 736.263C828.307 739.865 828.013 746.246 828.162 751.188C824.571 751.296 820.968 751.276 817.375 751.309L806.112 751.191C805.559 746.704 804.731 741.575 807.742 737.702C809.814 735.038 812.573 734.196 815.77 733.676Z"/>
	<path fill="#F4C0BB" d="M578.998 544.2L597.241 544.146Q602.632 551.121 607.327 558.582L578.959 558.59Q578.865 551.395 578.998 544.2Z"/>
	<path fill="#F4C0BB" d="M650.714 510.58L680.794 510.564C682.662 514.639 684.627 518.69 686.105 522.926C678.141 523.122 670.14 522.984 662.172 523C658.407 518.815 654.535 514.715 650.714 510.58Z"/>
	<path fill="#FAF8F6" d="M844.093 733.62C847.519 733.995 850.735 734.8 853.196 737.379C856.755 741.109 856.656 746.07 856.459 750.852L845.875 750.899L833.817 750.936C833.78 746.749 833.718 742.532 836.065 738.851C837.913 735.953 840.832 734.399 844.093 733.62Z"/>
	<path fill="#F4C0BB" d="M507.798 564.516L525.796 564.521L525.778 579.963L507.956 579.955C507.737 574.809 507.779 569.665 507.798 564.516Z"/>
	<path fill="#F4C0BB" d="M555.517 564.488L573.193 564.504Q573.233 572.291 573.132 580.077L555.637 580.033C555.402 574.879 555.541 569.65 555.517 564.488Z"/>
	<path fill="#F4C0BB" d="M460.29 564.536L478.087 564.582L478.04 579.748L460.348 579.788L460.29 564.536Z"/>
	<path fill="#F4C0BB" d="M413.065 564.491L430.493 564.525L430.437 580.037L413.115 580.038L413.065 564.491Z"/>
	<path fill="#F4C0BB" d="M531.877 564.557L549.541 564.579L549.522 579.9L531.978 579.839L531.877 564.557Z"/>
	<path fill="#F4C0BB" d="M483.936 564.488L501.493 564.502L501.419 579.737C495.65 580.013 489.774 579.816 483.993 579.831L483.936 564.488Z"/>
	<path fill="#F4C0BB" d="M436.5 564.462L453.869 564.497C454.066 569.617 454.233 574.692 454.063 579.817Q445.301 579.75 436.538 579.786L436.5 564.462Z"/>
	<path fill="#F4C0BB" d="M579.15 564.466L596.134 564.492C596.18 569.641 596.551 575.116 595.876 580.22C590.332 580.385 584.783 580.285 579.238 580.238L579.15 564.466Z"/>
	<path fill="#F4C0BB" d="M507.53 543.948L525.864 543.97L525.842 558.454L507.574 558.496L507.53 543.948Z"/>
	<path fill="#F4C0BB" d="M436.555 543.692L454.295 543.744L454.396 558.529L436.552 558.507C436.488 553.571 436.549 548.629 436.555 543.692Z"/>
	<path fill="#F4C0BB" d="M531.794 543.879L549.516 543.836L549.541 558.689L531.823 558.622C531.743 553.713 531.802 548.789 531.794 543.879Z"/>
	<path fill="#F4C0BB" d="M460.304 543.871L478.049 543.904L478.041 558.502L460.346 558.531L460.304 543.871Z"/>
	<path fill="#F4C0BB" d="M555.556 544.018L573.3 544.07L573.269 558.57L555.572 558.607L555.556 544.018Z"/>
	<path fill="#F4C0BB" d="M483.86 543.839L501.427 543.812L501.441 558.5L483.894 558.502L483.86 543.839Z"/>
	<path fill="#F4C0BB" d="M413.04 543.97L430.639 543.977C430.707 548.827 430.644 553.69 430.645 558.541L413.053 558.542L413.04 543.97Z"/>
	<path fill="#F4C0BB" d="M507.589 524.491L525.97 524.47L525.985 538.203Q516.795 538.261 507.605 538.133C507.478 533.591 507.569 529.035 507.589 524.491Z"/>
	<path fill="#FAF8F6" d="M790.529 719.436C797.611 721.973 801.192 726.149 804.623 732.586C801.326 736.818 799.754 739.882 799.56 745.375C799.629 747.069 799.925 748.955 799.105 750.488C797.615 751.414 795.277 751.034 793.568 750.992C793.601 740.37 791.833 729.953 790.529 719.436Z"/>
	<path fill="#F4C0BB" d="M436.375 524.461L454.379 524.445L454.343 537.974L436.455 537.998L436.375 524.461Z"/>
	<path fill="#F4C0BB" d="M555.519 524.54L572.902 524.565L573.003 538.392L555.522 538.316L555.519 524.54Z"/>
	<path fill="#F4C0BB" d="M460.345 524.449L478.001 524.482L478.014 538.073C472.144 538.169 466.258 538.083 460.386 538.078L460.345 524.449Z"/>
	<path fill="#F4C0BB" d="M610.99 564.282C612.884 564.833 621.517 577.701 623.097 580.038L614.75 580.074L602.474 580.096Q602.123 572.231 602.064 564.358L610.99 564.282Z"/>
	<path fill="#F4C0BB" d="M531.981 524.47L549.286 524.487L549.37 538.313Q540.686 538.371 532.003 538.213L531.981 524.47Z"/>
	<path fill="#F4C0BB" d="M483.992 524.499L501.478 524.501L501.481 538.035L484.041 538.036L483.992 524.499Z"/>
	<path fill="#F4C0BB" d="M413.002 524.513L430.415 524.554L430.461 537.999L413.009 538.009L413.002 524.513Z"/>
	<path fill="#B2B6CF" d="M569.489 379.888L603.34 379.82L603.249 386.376C592.016 386.737 580.737 386.548 569.497 386.558L569.489 379.888Z"/>
	<path fill="#F4C0BB" d="M398.159 543.911L407.203 543.979L407.174 558.659L396.441 558.631L387.956 558.54C390.714 553.432 394.216 548.182 398.159 543.911Z"/>
	<path fill="#F4C0BB" d="M686.734 528.75L688.249 528.684C690.987 530.419 692.852 536.541 694.151 539.595C689.737 539.6 685.283 539.72 680.873 539.558C679.459 539.506 678.821 539.731 677.845 538.66C674.537 535.298 671.181 532.086 667.649 528.958C674.003 528.778 680.377 528.813 686.734 528.75Z"/>
	<path fill="#FAF8F6" d="M827.091 723.071C829.802 722.878 831.917 722.94 834.507 723.857C836.343 724.507 837.968 725.124 838.84 726.989C838.829 727.415 839.008 727.892 838.808 728.269C837.981 729.824 832.864 733.95 831.318 735.532C829.257 735.089 828.292 732.233 826.424 730.912C824.481 729.538 822.034 728.824 819.807 728.037C821.969 725.749 824.225 724.359 827.091 723.071Z"/>
	<path fill="#F4C0BB" d="M578.995 524.567L583.346 524.634C584.014 524.938 584.43 525.248 584.916 525.805C587.203 528.426 591.944 534.787 591.779 538.288C587.589 538.697 583.238 538.443 579.026 538.415L578.995 524.567Z"/>
</svg>
