<svg width="24" height="24" fill="none" xmlns="http://www.w3.org/2000/svg"><path d="M5.833 10.333a6.933 6.933 0 002.42 5.205l1.08 3.512v1.283A1.67 1.67 0 0011 22h2a1.669 1.669 0 001.667-1.667V19.05l1.08-3.512a6.933 6.933 0 002.42-5.205c0-3.283-2.594-5.666-6.167-5.666S5.833 7.05 5.833 10.333zM14 20h-4v-.667h4V20zm-1 1.333h-2a1 1 0 01-.943-.666h3.886c-.142.399-.52.666-.943.666zm1.087-2.666H9.913l-.763-2.478a5.41 5.41 0 005.7 0l-.763 2.478zm-2.773-6.428l.49.351a.333.333 0 00.388 0l.495-.357a.322.322 0 00-.02.1v3.946a4.136 4.136 0 01-1.334 0v-3.946a.326.326 0 00-.019-.094zM12 5.333c3.187 0 5.5 2.103 5.5 5 0 2.698-1.833 5.11-4.167 5.798v-3.72l.249.18a.333.333 0 00.39 0l.89-.64a.333.333 0 10-.39-.541l-.696.5-.695-.5a.333.333 0 00-.39 0l-.693.5-.694-.5a.333.333 0 00-.39 0l-.693.5-.693-.5a.333.333 0 10-.39.54l.888.64a.333.333 0 00.39 0l.25-.18v3.721c-2.333-.688-4.166-3.1-4.166-5.798 0-2.897 2.313-5 5.5-5z" fill="#4feb28"/><path d="M7.341 11.739a.333.333 0 00.652-.145 4.12 4.12 0 01.714-3.548 3.759 3.759 0 012.96-1.38.333.333 0 100-.666 4.42 4.42 0 00-3.48 1.629 4.777 4.777 0 00-.846 4.11zm5.326-5.072H13A.333.333 0 1013 6h-.333a.333.333 0 000 .667zm-.334-3V2.333a.333.333 0 00-.666 0v1.334a.333.333 0 00.666 0zm4.765 13.431a.333.333 0 000 .471l1 1a.333.333 0 00.471-.471l-1-1a.333.333 0 00-.471 0zm-12.529-13a.333.333 0 00-.471.47l1 1a.333.333 0 00.47-.47l-1-1zm.862 14.471c.13.13.341.13.471 0l1-1a.333.333 0 00-.471-.471l-1 1a.333.333 0 000 .47zM5 11.667H3.333a.333.333 0 000 .666H5a.333.333 0 000-.666zm14.431-7.569l-1 1a.333.333 0 10.471.47l1-1a.333.333 0 00-.47-.47zM18.667 12c0 .184.149.333.333.333h1.667a.333.333 0 000-.666H19a.333.333 0 00-.333.333z" fill="#4feb28"/></svg>